<svg xmlns="http://www.w3.org/2000/svg" width="46" height="46"><path id="icon" d="M277.988 681.932v-5.885l-4.915-.393a18.311 18.311 0 00-.752-2.82l4.058-2.8-2.943-5.1-4.456 2.118a18.569 18.569 0 00-2.061-2.052l2.118-4.456-5.1-2.943-2.8 4.058a18.311 18.311 0 00-2.82-.752l-.394-4.915h-5.884l-.393 4.915a18.323 18.323 0 00-2.821.752l-2.8-4.057-5.1 2.942 2.133 4.456a18.408 18.408 0 00-2.058 2.06l-4.455-2.117-2.942 5.1 4.057 2.8a18.323 18.323 0 00-.752 2.821l-4.916.393v5.884l4.915.394a18.311 18.311 0 00.752 2.82l-4.056 2.8 2.942 5.094 4.455-2.128a18.587 18.587 0 002.063 2.061l-2.118 4.456 5.1 2.941 2.8-4.056a18.394 18.394 0 002.82.752l.393 4.915h5.885l.393-4.915a18.283 18.283 0 002.82-.753l2.8 4.057 5.1-2.941-2.118-4.457a18.484 18.484 0 002.061-2.061l4.456 2.117 2.943-5.1-4.058-2.8a18.341 18.341 0 00.752-2.82zm-23 8.558a11.5 11.5 0 1111.5-11.5 11.5 11.5 0 01-11.5 11.5z" transform="translate(-232 -656)" fill="#e8663c" fill-rule="evenodd"/></svg>